<svg width="242" height="33" viewBox="0 0 242 33" fill="none" xmlns="http://www.w3.org/2000/svg">
<line x1="0.993902" y1="16.4796" x2="241.994" y2="15.5" stroke="#33718A" stroke-width="3"/>
<circle cx="170" cy="16" r="16" fill="#94C3CD"/>
<circle cx="218" cy="17" r="16" fill="#94C3CD"/>
<circle cx="27" cy="16" r="16" fill="#94C3CD"/>
<circle cx="26.5" cy="16.5" r="12.5" fill="white"/>
<path d="M20 18L26 24L34 9" stroke="#FF9D60" stroke-width="4" stroke-miterlimit="10" stroke-linecap="round" stroke-linejoin="round"/>
<circle cx="75" cy="17" r="16" fill="#94C3CD"/>
<circle cx="74.5" cy="17.5" r="12.5" fill="white"/>
<path d="M68 19L74 25L82 10" stroke="#FF9D60" stroke-width="4" stroke-miterlimit="10" stroke-linecap="round" stroke-linejoin="round"/>
<circle cx="122" cy="16" r="16" fill="#94C3CD"/>
<circle cx="121.5" cy="16.5" r="12.5" fill="white"/>
<path d="M115 18L121 24L129 9" stroke="#FF9D60" stroke-width="4" stroke-miterlimit="10" stroke-linecap="round" stroke-linejoin="round"/>
<circle cx="169" cy="16" r="16" fill="#94C3CD"/>
<circle cx="168.5" cy="16.5" r="12.5" fill="white"/>
<path d="M162 18L168 24L176 9" stroke="#FF9D60" stroke-width="4" stroke-miterlimit="10" stroke-linecap="round" stroke-linejoin="round"/>
</svg>
