<svg width="59" height="59" viewBox="0 0 59 59" fill="none" xmlns="http://www.w3.org/2000/svg">
<path d="M22.1237 54.0833L21.5076 45.4573C21.1763 40.8197 24.8493 36.875 29.4987 36.875C34.1481 36.875 37.8211 40.8197 37.4898 45.4573L36.8737 54.0833" stroke="#F5F5F5" stroke-width="5"/>
<path d="M5.78089 32.4831C4.91305 26.8358 4.47913 24.0121 5.54679 21.5089C6.61446 19.0057 8.9832 17.293 13.7207 13.8676L17.2603 11.3083C23.1537 7.04721 26.1004 4.91666 29.5004 4.91666C32.9004 4.91666 35.8471 7.04721 41.7405 11.3083L45.2801 13.8676C50.0176 17.293 52.3863 19.0057 53.454 21.5089C54.5216 24.0121 54.0877 26.8357 53.2199 32.4831L52.4798 37.2988C51.2496 45.3044 50.6345 49.3073 47.7633 51.6953C44.8922 54.0833 40.6948 54.0833 32.3 54.0833H26.7008C18.306 54.0833 14.1085 54.0833 11.2374 51.6953C8.36632 49.3073 7.75119 45.3044 6.52094 37.2988L5.78089 32.4831Z" stroke="#F5F5F5" stroke-width="5" stroke-linejoin="round"/>
</svg>
