<svg width="57" height="63" viewBox="0 0 57 63" fill="none" xmlns="http://www.w3.org/2000/svg">
<path d="M34.1826 3.62988H15.2901C14.0671 3.62988 12.9515 3.84009 11.9434 4.25537C10.9302 4.67578 9.99381 5.31152 9.13924 6.17285L9.14436 6.17798C8.79639 6.52661 8.48936 6.8855 8.21303 7.25464C6.66765 7.31616 5.18368 7.54688 3.75599 7.94678C3.79693 7.83398 3.84298 7.72119 3.88904 7.61353C4.49798 6.13696 5.39348 4.80396 6.58578 3.6145L6.5909 3.61963L6.59601 3.6145C7.78831 2.41992 9.11877 1.52271 10.5823 0.917725C12.0356 0.30249 13.6065 0 15.2901 0H23.8511H42.7436C44.422 0 45.9981 0.30249 47.4667 0.907471C48.9405 1.51758 50.2709 2.4148 51.4581 3.60425L51.453 3.60938C52.6504 4.80908 53.5459 6.14209 54.1497 7.60327C54.7536 9.07471 55.0555 10.6487 55.0555 12.3354V12.3816H51.4325V12.3354C51.4325 11.1101 51.2227 9.99243 50.8082 8.98242C50.3886 7.96729 49.7541 7.02905 48.8995 6.17285L48.8944 6.16772L48.8893 6.17285C48.0245 5.3064 47.0932 4.67065 46.0851 4.25537C45.077 3.84009 43.9564 3.62988 42.7385 3.62988H34.1826ZM44.8058 20.4771H56.6111V23.343L50.1788 29.8953H57V33.238H44.3146V30.0645L50.4398 23.825H44.8058V20.4771ZM37.345 15.6372H42.2268V18.9543H37.345V15.6372ZM37.345 20.4771H42.2268V33.238H37.345V20.4771ZM34.2031 33.238H29.6437V31.1821C28.9631 32.0281 28.2825 32.6331 27.5968 32.9919C26.906 33.3508 26.0617 33.5303 25.0536 33.5303C23.7129 33.5303 22.6639 33.1304 21.9014 32.3203C21.139 31.5154 20.7603 30.2747 20.7603 28.5981V20.4771H25.6677V27.5061C25.6677 28.3059 25.8161 28.875 26.1077 29.2134C26.4045 29.5518 26.8139 29.7158 27.3461 29.7158C27.9243 29.7158 28.3951 29.4902 28.7687 29.0442C29.1371 28.593 29.3213 27.7881 29.3213 26.6243V20.4719H34.2031V33.238ZM16.293 30.6541C16.9685 31.1257 17.4086 31.4231 17.6184 31.541C17.9254 31.7153 18.345 31.9204 18.8721 32.1562L17.3727 35.2017C16.6154 34.8325 15.8632 34.3967 15.1212 33.8892C14.3792 33.3816 13.8573 32.9971 13.5656 32.7458C12.3682 33.2637 10.8688 33.5303 9.05737 33.5303C6.38621 33.5303 4.28306 32.833 2.73768 31.4385C0.910854 29.7979 0 27.4805 0 24.4966C0 21.5999 0.798276 19.3491 2.39483 17.7444C3.99138 16.1396 6.21223 15.3398 9.07783 15.3398C11.9946 15.3398 14.241 16.1243 15.8274 17.6931C17.4137 19.2568 18.2068 21.5024 18.2068 24.4197C18.2068 27.019 17.5672 29.0955 16.293 30.6541ZM12.1328 27.865C12.5677 27.0908 12.7827 25.9321 12.7827 24.3838C12.7827 22.6099 12.45 21.3435 11.795 20.5796C11.1349 19.8208 10.2241 19.4414 9.06248 19.4414C7.97765 19.4414 7.10261 19.8311 6.43226 20.6052C5.7568 21.3794 5.42419 22.5945 5.42419 24.2402C5.42419 26.1628 5.75168 27.5112 6.40668 28.2854C7.06679 29.0596 7.9623 29.4492 9.10342 29.4492C9.47186 29.4492 9.81982 29.4133 10.1473 29.3416C9.68678 28.9006 8.97037 28.4854 7.98276 28.0906L8.83221 26.1372C9.31322 26.2244 9.69189 26.332 9.95798 26.4602C10.2292 26.5884 10.7511 26.9216 11.5341 27.4702C11.7183 27.5984 11.9179 27.7317 12.1328 27.865ZM7.27148 41.5642C7.68597 42.5281 8.31026 43.4202 9.13412 44.2507L9.216 44.3379C10.0501 45.1479 10.9609 45.7632 11.9486 46.1682C12.9566 46.5835 14.0722 46.7937 15.2901 46.7937H23.4059C24.4088 46.7937 25.2173 47.6089 25.2173 48.6086C25.2173 48.824 25.1815 49.0342 25.1099 49.229C24.8131 50.3774 24.4702 51.5054 24.0916 52.6025C23.6924 53.7561 23.2575 54.8687 22.7816 55.9299C22.5769 56.4067 22.3415 56.8733 22.0805 57.3347C23.6515 56.6221 25.1252 55.812 26.5069 54.8994H26.512L26.5069 54.8943C28.0318 53.8945 29.439 52.7871 30.7388 51.5669C32.0539 50.3313 33.2513 48.9829 34.3412 47.532C34.6943 47.0603 35.2367 46.8091 35.7843 46.8091V46.804H42.7487C43.9666 46.804 45.0821 46.5938 46.0902 46.1785C47.1085 45.7581 48.0501 45.1172 48.9098 44.261C49.7643 43.4048 50.3989 42.4666 50.8185 41.4514L50.8594 41.3489H54.6563C54.5233 41.8564 54.3595 42.3486 54.16 42.8306C53.5562 44.2969 52.6555 45.635 51.4581 46.8347C50.2607 48.0242 48.9302 48.9265 47.4667 49.5315C46.0032 50.1365 44.4323 50.4441 42.7538 50.4441H36.6644C35.5949 51.8027 34.4436 53.0588 33.2103 54.2175C31.7468 55.5967 30.1707 56.8425 28.4872 57.9448L28.4821 57.9397C26.7883 59.0574 24.982 60.0366 23.0733 60.8723C21.1646 61.708 19.133 62.4053 16.989 62.9641C16.3544 63.1282 15.6483 62.9385 15.1826 62.4104C14.5225 61.6619 14.5941 60.5186 15.3361 59.8572C16.293 59.0061 17.1067 58.1499 17.7821 57.2886L17.8589 57.1809C18.5395 56.2991 19.0768 55.4019 19.4708 54.4995L19.4759 54.4841C19.9211 53.4895 20.3253 52.4744 20.6784 51.4438C20.791 51.1157 20.9036 50.7825 21.011 50.4441H15.2901C13.6116 50.4441 12.0407 50.1365 10.5772 49.5315C9.15459 48.9419 7.85995 48.0754 6.68812 46.9373C6.64719 46.9065 6.61137 46.8706 6.57555 46.8347C5.38837 45.6453 4.48775 44.3123 3.88392 42.8357C3.61783 42.1897 3.41314 41.5232 3.25963 40.8311C4.52868 41.2002 5.86426 41.4514 7.27148 41.5642Z" fill="white"/>
</svg>
