<svg width="30" height="48" viewBox="0 0 30 48" fill="none" xmlns="http://www.w3.org/2000/svg">
<g clip-path="url(#clip0_188_449)">
<path d="M24.3163 0H0V40.2931H24.3163V0Z" fill="#94C3CD"/>
<path d="M17.3667 15.9439C19.3769 15.9439 21.0065 14.3183 21.0065 12.313C21.0065 10.3076 19.3769 8.68201 17.3667 8.68201C15.3564 8.68201 13.7268 10.3076 13.7268 12.313C13.7268 14.3183 15.3564 15.9439 17.3667 15.9439Z" fill="#33718A"/>
<path d="M7.633 11.3586C7.633 11.3586 10.2741 23.4367 30 16.739C30 16.739 18.4033 23.401 17.8061 28.5129C17.1732 33.929 23.4268 44.4338 23.4268 44.4338C23.4268 44.4338 15.6992 36.3895 11.0626 35.0722C6.42602 33.7549 7.6351 11.3586 7.6351 11.3586H7.633Z" fill="#33718A"/>
<path d="M0 0L12.8331 0.807582V47.2131L0 40.2931V0Z" fill="#FFB374"/>
<path d="M13.6384 0.788696H12.8268V47.2131H13.6384V0.788696Z" fill="#FFB374"/>
</g>
<defs>
<clipPath id="clip0_188_449">
<rect width="30" height="47.2131" fill="white"/>
</clipPath>
</defs>
</svg>
